<svg width="1020" height="463" xmlns="http://www.w3.org/2000/svg" xmlns:xlink="http://www.w3.org/1999/xlink" overflow="hidden"><defs><clipPath id="clip0"><rect x="130" y="115" width="1020" height="463"/></clipPath></defs><g clip-path="url(#clip0)" transform="translate(-130 -115)"><path d="M131.5 350.5C131.5 225.131 233.131 123.5 358.5 123.5 483.869 123.5 585.5 225.131 585.5 350.5 585.5 475.869 483.869 577.5 358.5 577.5 233.131 577.5 131.5 475.869 131.5 350.5Z" stroke="#0033CC" stroke-width="1.33333" stroke-miterlimit="8" stroke-opacity="0.301961" fill="#4472C4" fill-rule="evenodd" fill-opacity="0.25098"/><path d="M188.5 350.5C188.5 256.612 264.612 180.5 358.5 180.5 452.388 180.5 528.5 256.612 528.5 350.5 528.5 444.388 452.388 520.5 358.5 520.5 264.612 520.5 188.5 444.388 188.5 350.5Z" stroke="#0033CC" stroke-width="1.33333" stroke-miterlimit="8" stroke-opacity="0.301961" fill="#4472C4" fill-rule="evenodd" fill-opacity="0.25098"/><path d="M261.5 351C261.5 297.705 304.928 254.5 358.5 254.5 412.072 254.5 455.5 297.705 455.5 351 455.5 404.296 412.072 447.5 358.5 447.5 304.928 447.5 261.5 404.296 261.5 351Z" stroke="#0033CC" stroke-width="1.33333" stroke-miterlimit="8" stroke-opacity="0.301961" fill="#4472C4" fill-rule="evenodd" fill-opacity="0.25098"/><path d="M695.5 344C695.5 218.908 797.131 117.5 922.5 117.5 1047.87 117.5 1149.5 218.908 1149.5 344 1149.5 469.093 1047.87 570.5 922.5 570.5 797.131 570.5 695.5 469.093 695.5 344Z" stroke="#C00000" stroke-width="1.33333" stroke-miterlimit="8" stroke-opacity="0.301961" fill="#C00000" fill-rule="evenodd" fill-opacity="0.25098"/><path d="M752.5 344C752.5 249.835 828.612 173.5 922.5 173.5 1016.39 173.5 1092.5 249.835 1092.5 344 1092.5 438.165 1016.39 514.5 922.5 514.5 828.612 514.5 752.5 438.165 752.5 344Z" stroke="#C00000" stroke-width="1.33333" stroke-miterlimit="8" stroke-opacity="0.301961" fill="#C00000" fill-rule="evenodd" fill-opacity="0.25098"/><path d="M825.5 344C825.5 290.705 868.928 247.5 922.5 247.5 976.072 247.5 1019.5 290.705 1019.5 344 1019.5 397.296 976.072 440.5 922.5 440.5 868.928 440.5 825.5 397.296 825.5 344Z" stroke="#C00000" stroke-width="1.33333" stroke-miterlimit="8" stroke-opacity="0.301961" fill="#C00000" fill-rule="evenodd" fill-opacity="0.25098"/><text fill="#4472C4" font-family="Cambria Math,Cambria Math_MSFontService,sans-serif" font-weight="400" font-size="27" transform="translate(286.814 162)">A<tspan font-size="18" x="16.6667" y="6">(</tspan><tspan font-size="18" x="24" y="6">n)</tspan><tspan font-size="27" x="47.1667" y="0">\</tspan><tspan font-size="27" x="66" y="0">g</tspan><tspan font-size="27" x="79.1667" y="0">(B</tspan><tspan font-size="18" x="106.5" y="6">(</tspan><tspan font-size="18" x="113.833" y="6">n)</tspan><tspan font-size="27" x="131.167" y="0">)</tspan><tspan fill="#C00000" font-size="27" x="569.657" y="0">B</tspan><tspan fill="#C00000" font-size="18" x="585.99" y="6">(</tspan><tspan fill="#C00000" font-size="18" x="593.324" y="6">n)</tspan><tspan fill="#C00000" font-size="27" x="610.657" y="0">\</tspan><tspan fill="#C00000" font-size="27" x="629.49" y="0">f</tspan><tspan fill="#C00000" font-size="27" x="637.49" y="0">(</tspan><tspan fill="#C00000" font-size="27" x="648.49" y="0">A</tspan><tspan fill="#C00000" font-size="18" x="665.157" y="6">(</tspan><tspan fill="#C00000" font-size="18" x="672.49" y="6">n)</tspan><tspan fill="#C00000" font-size="27" x="689.824" y="0">)</tspan><tspan font-size="27" x="-13.4318" y="73">g</tspan><tspan font-size="27" x="-0.265137" y="73">(B</tspan><tspan font-size="18" x="27.0682" y="79">(</tspan><tspan font-size="18" x="34.4015" y="79">n)</tspan><tspan font-size="27" x="51.7349" y="73">\</tspan><tspan font-size="27" x="70.5682" y="73">f</tspan>(A<tspan font-size="18" x="106.235" y="79">(</tspan><tspan font-size="18" x="113.568" y="79">n)</tspan><tspan font-size="27" x="130.902" y="73">))</tspan><tspan font-size="32" x="29.0515" y="192">A</tspan><tspan font-size="21" x="49.0515" y="199">(</tspan><tspan font-size="21" x="57.8848" y="199">n+1)</tspan><tspan fill="#C00000" font-size="27" x="552.57" y="66">f</tspan><tspan fill="#C00000" font-size="27" x="560.57" y="66">(A</tspan><tspan fill="#C00000" font-size="18" x="588.236" y="72">(</tspan><tspan fill="#C00000" font-size="18" x="595.57" y="72">n)</tspan><tspan fill="#C00000" font-size="27" x="618.736" y="66">\</tspan><tspan fill="#C00000" font-size="27" x="637.57" y="66">g</tspan><tspan fill="#C00000" font-size="27" x="650.736" y="66">(B</tspan><tspan fill="#C00000" font-size="18" x="678.07" y="72">(</tspan><tspan fill="#C00000" font-size="18" x="685.403" y="72">n)</tspan><tspan fill="#C00000" font-size="27" x="702.736" y="66">))</tspan><tspan fill="#C00000" font-size="32" x="596.824" y="184">B</tspan><tspan fill="#C00000" font-size="21" x="616.324" y="191">(</tspan><tspan fill="#C00000" font-size="21" x="625.157" y="191">n+1)</tspan></text><path d="M0.728583-0.17606 356.839 80.8622 356.691 81.5122 0.580655 0.473987ZM7.18101 6.71534-0.00150637-0.000342784 9.37971-2.94684C9.55534-3.002 9.74244-2.90434 9.79761-2.7287 9.85277-2.55307 9.75511-2.36597 9.57948-2.3108L0.743432 0.46446 0.871205-0.0970382 7.63633 6.22838C7.7708 6.35411 7.77788 6.56505 7.65215 6.69952 7.52642 6.83399 7.31548 6.84107 7.18101 6.71534Z" fill="#CC00CC" transform="matrix(1 0 0 -1 464.5 261.687)"/><path d="M820.549 261.865 464.426 180.825 464.574 180.175 820.697 261.215ZM814.089 254.972 821.271 261.688 811.89 264.634C811.714 264.689 811.527 264.592 811.472 264.416 811.417 264.24 811.514 264.053 811.69 263.998L820.526 261.223 820.398 261.784 813.633 255.459C813.499 255.333 813.492 255.122 813.617 254.988 813.743 254.853 813.954 254.846 814.089 254.972Z" fill="#CC00CC"/></g></svg>